/* XPM */
static char *result[] = {
/* columns rows colors chars-per-pixel */
"64 64 10 1 ",
"  c gray13",
". c gray32",
"X c #AB4D3B",
"o c #D86E5A",
"O c #B58315",
"+ c #FFC038",
"@ c #797C86",
"# c #ABADB0",
"$ c white",
"% c None",
/* pixels */
"%%%%%%%%%%%%%%%%%%%%%%%%%%%%%%%%%%%%%%%%%%%%%%%%%%%%%%%%%%%%%%%%",
"%%%%%%%%%%%%%%%%%%%%%%%%%%%%%%%%%%%%%%%%%%%%%%%%%%%%%%%%%%%%%%%%",
"%%%%%%%%%%%%%%%%%%%%%%%%%%%%%%%%%%%%%%%%%%%%%%%%%%%%%%%%%%%%%%%%",
"%%%%%%%%%%%%%%%%%%%%%%%%%%%%%%%%%%%%%%%%%%%%%%%%%%%%%%%%%%%%%%%%",
"%%%%%%%%%%%%%%%%    %%%%%%%%%%    %%%%%%%%%%%%%%%%%%%%%%%%%%%%%%",
"%%%%%%%%%%%%%%%%    %%%%%%%%%%    %%%%%%%%%%%%%%%%%%%%%%%%%%%%%%",
"%%%%%%%%%%%%%%  ++  %%%%%%%%%%  ++  %%%%%%%%%%%%%%%%%%%%%%%%%%%%",
"%%%%%%%%%%%%%%  ++  %%%%%%%%%%  ++  %%%%%%%%%%%%%%%%%%%%%%%%%%%%",
"%%%%%%%%%%%%%%  OO  %%%%%%%%%%  OO  %%%%%%%%%%%%%%%%%%%%%%%%%%%%",
"%%%%%%%%%%%%%%  OO  %%%%%%%%%%  OO  %%%%%%%%%%%%%%%%%%%%%%%%%%%%",
"%%%%%%    %%%%  OO  %%%%%%%%%%  OO  %%%%%%%%%%%%%%%%%%%%%%%%%%%%",
"%%%%%%    %%%%  OO  %%%%%%%%%%  OO  %%%%%%%%%%%%%%%%%%%%%%%%%%%%",
"%%%%%%  ++  %%%%  ++  %%%%      ++  %%%%%%%%%%%%%%%%%%%%%%%%%%%%",
"%%%%%%  ++  %%%%  ++  %%%%      ++  %%%%%%%%%%%%%%%%%%%%%%%%%%%%",
"%%%%%%%%  OO  %%%%  OO  %%  ++++  %%%%        %%%%%%%%%%%%%%%%%%",
"%%%%%%%%  OO  %%%%  OO  %%  ++++  %%%%        %%%%%%%%%%%%%%%%%%",
"%%%%%%%%%%  ++      OO  %%  ++    %%  ++OOOO++  %%%%%%%%%%%%%%%%",
"%%%%%%%%%%  ++      OO  %%  ++    %%  ++OOOO++  %%%%%%%%%%%%%%%%",
"%%%%%%%%%%  OO      OO  %%  ++        OO        %%%%%%%%%%%%%%%%",
"%%%%%%%%%%  OO      OO  %%  ++        OO        %%%%%%%%%%%%%%%%",
"%%%%%%%%%%%%  OOOOOO..    ..OO++++++++++  %%%%%%%%%%%%%%%%%%%%%%",
"%%%%%%%%%%%%  OOOOOO..    ..OO++++++++++  %%%%%%%%%%%%%%%%%%%%%%",
"%%%%%%%%%%%%      ..########++OO......    %%%%%%%%%%%%%%%%%%%%%%",
"%%%%%%%%%%%%      ..########++OO......    %%%%%%%%%%%%%%%%%%%%%%",
"%%%%%%%%%%%%%%%%  ############@@      %%%%%%%%%%%%%%%%%%%%%%%%%%",
"%%%%%%%%%%%%%%%%  ############@@      %%%%%%%%%%%%%%%%%%%%%%%%%%",
"%%%%%%%%%%%%%%%%  ######@@$$..########  %%%%%%%%%%%%%%%%%%%%%%%%",
"%%%%%%%%%%%%%%%%  ######@@$$..########  %%%%%%%%%%%%%%%%%%%%%%%%",
"%%%%%%%%%%%%%%%%  ####@@$$##..@@####@@  %%    %%%%%%%%%%%%%%%%%%",
"%%%%%%%%%%%%%%%%  ####@@$$##..@@####@@  %%    %%%%%%%%%%%%%%%%%%",
"%%%%%%%%%%%%%%  ######....$$@@@@....  %%  $$$$  %%%%%%%%%%%%%%%%",
"%%%%%%%%%%%%%%  ######....$$@@@@....  %%  $$$$  %%%%%%%%%%%%%%%%",
"%%%%%%%%%%%%%%  XXXX####  ####@@$$  %%  $$$$##$$  %%%%%%%%%%%%%%",
"%%%%%%%%%%%%%%  XXXX####  ####@@$$  %%  $$$$##$$  %%%%%%%%%%%%%%",
"%%%%%%%%%%%%  XXooXXXX######@@$$$$..  ..##$$$$$$  %%%%%%%%%%%%%%",
"%%%%%%%%%%%%  XXooXXXX######@@$$$$..  ..##$$$$$$  %%%%%%%%%%%%%%",
"%%%%%%%%%%%%  XXXXXXXX######@@$$$$..@@$$....$$##  %%%%%%%%%%%%%%",
"%%%%%%%%%%%%  XXXXXXXX######@@$$$$..@@$$....$$##  %%%%%%%%%%%%%%",
"%%%%%%%%%%%%%%  XXXX$$@@@@@@$$$$$$..@@@@$$@@    %%%%%%%%%%%%%%%%",
"%%%%%%%%%%%%%%  XXXX$$@@@@@@$$$$$$..@@@@$$@@    %%%%%%%%%%%%%%%%",
"%%%%%%%%%%%%%%%%  $$$$$$$$$$$$$$..@@@@$$@@@@  %%%%%%%%%%%%%%%%%%",
"%%%%%%%%%%%%%%%%  $$$$$$$$$$$$$$..@@@@$$@@@@  %%%%%%%%%%%%%%%%%%",
"%%%%%%%%%%%%%%%%  $$$$$$$$$$$$$$..@@@@@@@@@@  %%%%%%%%%%%%%%%%%%",
"%%%%%%%%%%%%%%%%  $$$$$$$$$$$$$$..@@@@@@@@@@  %%%%%%%%%%%%%%%%%%",
"%%%%%%%%%%%%%%%%  $$$$$$$$$$$$..@@@@@@@@@@@@@@  %%%%%%%%%%%%%%%%",
"%%%%%%%%%%%%%%%%  $$$$$$$$$$$$..@@@@@@@@@@@@@@  %%%%%%%%%%%%%%%%",
"%%%%%%%%%%%%%%%%%%  $$$$####..@@@@@@####  @@####  %%%%%%%%%%%%%%",
"%%%%%%%%%%%%%%%%%%  $$$$####..@@@@@@####  @@####  %%%%%%%%%%%%%%",
"%%%%%%%%%%%%%%%%%%  ##$$$$    @@@@..##    ####    %%%%%%%%%%%%%%",
"%%%%%%%%%%%%%%%%%%  ##$$$$    @@@@..##    ####    %%%%%%%%%%%%%%",
"%%%%%%%%%%%%%%%%%%  ..    %%  ####..  %%%%  ....  %%%%%%%%%%%%%%",
"%%%%%%%%%%%%%%%%%%  ..    %%  ####..  %%%%  ....  %%%%%%%%%%%%%%",
"%%%%%%%%%%%%%%%%%%  ..  %%%%%%  $$##  %%%%%%  ..  %%%%%%%%%%%%%%",
"%%%%%%%%%%%%%%%%%%  ..  %%%%%%  $$##  %%%%%%  ..  %%%%%%%%%%%%%%",
"%%%%%%%%%%%%%%%%%%    %%%%%%%%  ..  %%%%%%%%    %%%%%%%%%%%%%%%%",
"%%%%%%%%%%%%%%%%%%    %%%%%%%%  ..  %%%%%%%%    %%%%%%%%%%%%%%%%",
"%%%%%%%%%%%%%%%%%%%%%%%%%%%%%%  ..  %%%%%%%%%%%%%%%%%%%%%%%%%%%%",
"%%%%%%%%%%%%%%%%%%%%%%%%%%%%%%  ..  %%%%%%%%%%%%%%%%%%%%%%%%%%%%",
"%%%%%%%%%%%%%%%%%%%%%%%%%%%%%%    %%%%%%%%%%%%%%%%%%%%%%%%%%%%%%",
"%%%%%%%%%%%%%%%%%%%%%%%%%%%%%%    %%%%%%%%%%%%%%%%%%%%%%%%%%%%%%",
"%%%%%%%%%%%%%%%%%%%%%%%%%%%%%%%%%%%%%%%%%%%%%%%%%%%%%%%%%%%%%%%%",
"%%%%%%%%%%%%%%%%%%%%%%%%%%%%%%%%%%%%%%%%%%%%%%%%%%%%%%%%%%%%%%%%",
"%%%%%%%%%%%%%%%%%%%%%%%%%%%%%%%%%%%%%%%%%%%%%%%%%%%%%%%%%%%%%%%%",
"%%%%%%%%%%%%%%%%%%%%%%%%%%%%%%%%%%%%%%%%%%%%%%%%%%%%%%%%%%%%%%%%"
};
