/* XPM */
static char *result[] = {
/* columns rows colors chars-per-pixel */
"64 128 16 1 ",
"  c black",
". c #412E2A",
"X c #653F2F",
"o c #182672",
"O c #784040",
"+ c #A2690B",
"@ c #941448",
"# c #C4185B",
"$ c #DAA402",
"% c #D89870",
"& c #3957A7",
"* c #7879A5",
"= c #F8D0B8",
"- c #A8A8D8",
"; c #E8E8F8",
": c None",
/* pixels */
"::::::::::::::::::::::::::::::::::::::::::::::::::::::::::::::::",
"::::::::::::::::::::::::::::::::::::::::::::::::::::::::::::::::",
"::::::::::::::::::::::::::::::::::::::::::::::::::::::::::::::::",
"::::::::::::::::::::::::::::::::::::::::::::::::::::::::::::::::",
"::::::::::::::::::::::::::::::::::::::::::::::::::::::::::::::::",
"::::::::::::::::::::::::::::::::::::::::::::::::::::::::::::::::",
"::::::::::::::::::::::::::::::::::::::::::::::::::::::::::::::::",
"::::::::::::::::::::::::::::::::::::::::::::::::::::::::::::::::",
"::::::::::::::::::::::::::::::::::::::::::::::::::::::::::::::::",
"::::::::::::::::::::::::::::::::::::::::::::::::::::::::::::::::",
"::::::::::::::::::::::::::::::::::::::::::::::::::::::::::::::::",
"::::::::::::::::::::::::::::::::::::::::::::::::::::::::::::::::",
"::::::::::::::::::::::::::::::::::::::::::::::::::::::::::::::::",
"::::::::::::::::::::::::::::::::::::::::::::::::::::::::::::::::",
"::::::::::::::::::::::::::::::::::::::::::::::::::::::::::::::::",
"::::::::::::::::::::::::::::::::::::::::::::::::::::::::::::::::",
"::::::::::::::::::::::::::::::::::::::::::::::::::::::::::::::::",
"::::::::::::::::::::::::::::::::::::::::::::::::::::::::::::::::",
"::::::::::::::::::::::::::::::::::::::::::::::::::::::::::::::::",
"::::::::::::::::::::::::::::::::::::::::::::::::::::::::::::::::",
"::::::::::::::::::::::::::::::::::::::::::::::::::::::::::::::::",
"::::::::::::::::::::::::::::::::::::::::::::::::::::::::::::::::",
"::::::::::::::::::::::::::::::::::::::::::::::::::::::::::::::::",
"::::::::::::::::::::::::::::::::::::::::::::::::::::::::::::::::",
"::::::::::::::::::::::::::::::::::::::::::::::::::::::::::::::::",
"::::::::::::::::::::::::::::::::::::::::::::::::::::::::::::::::",
"::::::::::::::::::::::::::::::::::::::::::::::::::::::::::::::::",
"::::::::::::::::::::::::::::::::::::::::::::::::::::::::::::::::",
"::::::::::::::::::::::::::::::::::::::::::::::::::::::::::::::::",
"::::::::::::::::::::::::::::::::::::::::::::::::::::::::::::::::",
"::::::::::::::::::::::::::::::::::::::::::::::::::::::::::::::::",
"::::::::::::::::::::::::::::::::::::::::::::::::::::::::::::::::",
"::::::::::::::::::::::::::::::::::::::::::::::::::::::::::::::::",
"::::::::::::::::::::::::::::::::::::::::::::::::::::::::::::::::",
"::::::::::::::::::::::::::::::::::::::::::::::::::::::::::::::::",
"::::::::::::::::::::::::::::::::::::::::::::::::::::::::::::::::",
"::::::::::::::::::::::::::::::::::::::::::::::::::::::::::::::::",
"::::::::::::::::::::::::::::::::::::::::::::::::::::::::::::::::",
"::::::::::::::::::::::::::::::::::::::::::::::::::::::::::::::::",
"::::::::::::::::::::::::::::::::::::::::::::::::::::::::::::::::",
"::::::::::::::::::::::::::::::::::::::::::::::::::::::::::::::::",
"::::::::::::::::::::::::::::::::::::::::::::::::::::::::::::::::",
"::::::::::::::::::::::::::::::::::::::::::::::::::::::::::::::::",
"::::::::::::::::::::::::::::::::::::::::::::::::::::::::::::::::",
"::::::::::::::::::::::::::::::::::::::::::::::::::::::::::::::::",
"::::::::::::::::::::::::::::::::::::::::::::::::::::::::::::::::",
"::::::::::::::::::::::::::::::::::::::::::::::::::::::::::::::::",
"::::::::::::::::::::::::::::::::::::::::::::::::::::::::::::::::",
"::::::::::::::::::::::::::::::::::::::::::::::::::::::::::::::::",
"::::::::::::::::::::::::::::::::::::::::::::::::::::::::::::::::",
"::::::::::::::::::::::::::::::::::::::::::::::::::::::::::::::::",
"::::::::::::::::::::::::::::::::::::::::::::::::::::::::::::::::",
"::::::::::::::::::::::::::::::::::::::::::::::::::::::::::::::::",
"::::::::::::::::::::::::::::::::::::::::::::::::::::::::::::::::",
"::::::::::::::::::::::::::::::::::::::::::::::::::::::::::::::::",
"::::::::::::::::::::::::::::::::::::::::::::::::::::::::::::::::",
"::::::::::::::::::::::::::::::::::::::::::::::::::::::::::::::::",
"::::::::::::::::::::::::::::::::::::::::::::::::::::::::::::::::",
"::::::::::::::::::::::::::::::::::::::::::::::::::::::::::::::::",
"::::::::::::::::::::::::::::::::::::::::::::::::::::::::::::::::",
"::::::::::::::::::::::::::::::::::::::::::::::::::::::::::::::::",
"::::::::::::::::::::::::::::::::::::::::::::::::::::::::::::::::",
"::::::::::::::::::::::::::::::::::::::::::::::::::::::::::::::::",
"::::::::::::::::::::::::::::::::::::::::::::::::::::::::::::::::",
"::::::::::::::::::::::::::::::::::::::::::::::::::::::::::::::::",
"::::::::::::::::::::::::::::::::::::::::::::::::::::::::::::::::",
"::::::::::::::::::::::::::::::::::::::::::::::::::::::::::::::::",
"::::::::::::::::::::::::::::::::::::::::::::::::::::::::::::::::",
"::::::::::::::::::::::::::::::::::::::::::::::::::::::::::::::::",
"::::::::::::::::::::::::::::::::::::::::::::::::::::::::::::::::",
"::::::::::::::::::::::::::::::::::::::::::::::::::::::::::::::::",
"::::::::::::::::::::::::::::::::::::::::::::::::::::::::::::::::",
"::::::::::::::::::::::::::::::::::::::::::::::::::::::::::::::::",
"::::::::::::::::::::::::::::::::::::::::::::::::::::::::::::::::",
"::::::::::::::::::::::::::::::::::::::::::::::::::::::::::::::::",
"::::::::::::::::::::::::::::::::::::::::::::::::::::::::::::::::",
"::::::::::::::::::::::::::**********::::::::::::::::::::::::::::",
"::::::::::::::::::::::::::**********::::::::::::::::::::::::::::",
"::::::::::::::::::::::****;;;;;;;;;;****::::::::::::::::::::::::",
"::::::::::::::::::::::****;;;;;;;;;;****::::::::::::::::::::::::",
"::::::::::::::::::::  --;;;;;;;;;;;;;;--  ::::::::::::::::::::::",
"::::::::::::::::::::  --;;;;;;;;;;;;;;--  ::::::::::::::::::::::",
"::::::::::::::::    ;;;;;;;;;;;;;;;;;;;;;;    ::::::::::::::::::",
"::::::::::::::::    ;;;;;;;;;;;;;;;;;;;;;;    ::::::::::::::::::",
"::::::::::::    ;;;;;;;;;;;;;;;;;;;;;;;;;;;;;;    ::::::::::::::",
"::::::::::::    ;;;;;;;;;;;;;;;;;;;;;;;;;;;;;;    ::::::::::::::",
"::::::::::  --;;;;;;;;;;;;;;;;;;;;;;;;;;;;;;;;;;--  ::::::::::::",
"::::::::::  --;;;;;;;;;;;;;;;;;;;;;;;;;;;;;;;;;;--  ::::::::::::",
"::::::::::::  ----;;;;;;--------------;;;;;;----  ::::::::::::::",
"::::::::::::  ----;;;;;;--------------;;;;;;----  ::::::::::::::",
"::::::::::::::  --------;;;;;;;;;;;;;;--------  ::::::::::::::::",
"::::::::::::::  --------;;;;;;;;;;;;;;--------  ::::::::::::::::",
"::::::::::::::**------;;--**********--;;------**::::::::::::::::",
"::::::::::::::**------;;--**********--;;------**::::::::::::::::",
"::::::::::::::::****----oooo%%%%%%oooo----****::::::::::::::::::",
"::::::::::::::::****----oooo%%%%%%oooo----****::::::::::::::::::",
"::::::::::::::::  %%oooo&&%%======%%&&oooo%%  ::::::::::::::::::",
"::::::::::::::::  %%oooo&&%%======%%&&oooo%%  ::::::::::::::::::",
"::::::::::::::::  %%oo&&&&==========&&&&oo%%  ::::::::::::::::::",
"::::::::::::::::  %%oo&&&&==========&&&&oo%%  ::::::::::::::::::",
"::::::::::::::::::  &&&&--XX======XX--&&&&  &&oo::::::::::::::::",
"::::::::::::::::::  &&&&--XX======XX--&&&&  &&oo::::::::::::::::",
"::::::::::::::::::  &&&&;;  ======  ;;&&&&  oo  ::::::::::::::::",
"::::::::::::::::::  &&&&;;  ======  ;;&&&&  oo  ::::::::::::::::",
"::::::::::::::::::::&&&&==============&&oo  oo&&  ::::::::::::::",
"::::::::::::::::::::&&&&==============&&oo  oo&&  ::::::::::::::",
"::::::::::::::::::::..&&%%====%%====%%&&..oooo  ::::::::::::::::",
"::::::::::::::::::::..&&%%====%%====%%&&..oooo  ::::::::::::::::",
"::::::::::::::::    oo..@@##%%%%%%##@@..oo    ::::::::::::::::::",
"::::::::::::::::    oo..@@##%%%%%%##@@..oo    ::::::::::::::::::",
"::::::::::::::::  ;;&&XX--@@######@@##&&&&;;  ::::::::::::::::::",
"::::::::::::::::  ;;&&XX--@@######@@##&&&&;;  ::::::::::::::::::",
"::::::::::::::OO==--;;oo&&&&;;----;;&&oo;;--==OO::::::::::::::::",
"::::::::::::::OO==--;;oo&&&&;;----;;&&oo;;--==OO::::::::::::::::",
"::::::::::::::OO====OO  ++&&&&--;;&&++  OO====OO::::::::::::::::",
"::::::::::::::OO====OO  ++&&&&--;;&&++  OO====OO::::::::::::::::",
"::::::::::::::::OOOO  oo&&++$$$$$$++&&oo  OOOO::::::::::::::::::",
"::::::::::::::::OOOO  oo&&++$$$$$$++&&oo  OOOO::::::::::::::::::",
"::::::::::::::::::::  ;;oo&&&&&&&&&&oo;;  ::::::::::::::::::::::",
"::::::::::::::::::::  ;;oo&&&&&&&&&&oo;;  ::::::::::::::::::::::",
"::::::::::::::::::::::  $$++      ++$$  ::::::::::::::::::::::::",
"::::::::::::::::::::::  $$++      ++$$  ::::::::::::::::::::::::",
"::::::::::::::::::::::::    ::::::    ::::::::::::::::::::::::::",
"::::::::::::::::::::::::    ::::::    ::::::::::::::::::::::::::",
"::::::::::::::::::::::::::::::::::::::::::::::::::::::::::::::::",
"::::::::::::::::::::::::::::::::::::::::::::::::::::::::::::::::",
"::::::::::::::::::::::::::::::::::::::::::::::::::::::::::::::::",
"::::::::::::::::::::::::::::::::::::::::::::::::::::::::::::::::"
};
