/* XPM */
static char *_6e3e8f45fb843eacfb06f50249c0d88upNaOsjVAZFVORNs[] = {
/* columns rows colors chars-per-pixel */
"64 64 13 1 ",
"  c None",
". c black",
"X c gray25",
"o c #A85838",
"O c #904860",
"+ c #B86078",
"@ c #C07050",
"# c #F09028",
"$ c #B8A040",
"% c #F0D048",
"& c #F078A8",
"* c gray72",
"= c #F8F8F8",
/* pixels */
"                                                                ",
"                                                                ",
"                                                                ",
"                                                                ",
"                                                                ",
"                                                                ",
"                                                                ",
"                                                                ",
"                                                                ",
"                                                                ",
"                                                                ",
"                                                                ",
"                                                                ",
"                                                                ",
"                                                                ",
"                                                                ",
"                                                                ",
"                                                                ",
"                              ......                            ",
"                              ......                            ",
"                            ..&&&&%%..                          ",
"                            ..&&&&%%..                          ",
"                          ..$$%%&&&&&&..                        ",
"                          ..$$%%&&&&&&..                        ",
"                          ..OO++++$$OO..                        ",
"                          ..OO++++$$OO..                        ",
"                          ..XXOOOOOOXX....  ......              ",
"                          ..XXOOOOOOXX....  ......              ",
"                            ..XX$$XX######..&&%%$$..            ",
"                            ..XX$$XX######..&&%%$$..            ",
"                        ......####@@@@##XX&&&&&&%%$$..          ",
"                        ......####@@@@##XX&&&&&&%%$$..          ",
"                    ....@@####XXXX####@@XX$$$$++++OO..          ",
"                    ....@@####XXXX####@@XX$$$$++++OO..          ",
"                  ....==@@########XX####@@XXOOOOOOXX..          ",
"                  ....==@@########XX####@@XXOOOOOOXX..          ",
"              ....XX**@@######@@****XX@@##@@XXXX....            ",
"              ....XX**@@######@@****XX@@##@@XXXX....            ",
"            ..@@@@XX@@@@oooo@@**==..==XX@@XX@@XX..              ",
"            ..@@@@XX@@@@oooo@@**==..==XX@@XX@@XX..              ",
"          ..@@@@@@@@XXoo####oo**....==XXXX##XXXXoo..            ",
"          ..@@@@@@@@XXoo####oo**....==XXXX##XXXXoo..            ",
"          ..XX@@@@....==XXXXXXoo====XX####@@XX@@XXoo..          ",
"          ..XX@@@@....==XXXXXXoo====XX####@@XX@@XXoo..          ",
"          ..@@XX..    ....XX==@@ooXX####@@@@XXoo@@....          ",
"          ..@@XX..    ....XX==@@ooXX####@@@@XXoo@@....          ",
"          ..@@..          ......XX@@####@@@@....@@..            ",
"          ..@@..          ......XX@@####@@@@....@@..            ",
"            ..                  ..####@@@@..    ....            ",
"            ..                  ..####@@@@..    ....            ",
"                                ..##XXXX@@..                    ",
"                                ..##XXXX@@..                    ",
"                                ..XX@@XX..                      ",
"                                ..XX@@XX..                      ",
"                                  ..@@..                        ",
"                                  ..@@..                        ",
"                                  ....                          ",
"                                  ....                          ",
"                                                                ",
"                                                                ",
"                                                                ",
"                                                                ",
"                                                                ",
"                                                                "
};
