/* XPM */
static char *a24c1b3694c240ef9a48004d31e55ebbX6DAwYmKMF5BKcu3[] = {
/* columns rows colors chars-per-pixel */
"64 64 181 2 ",
"   c None",
".  c #000001",
"X  c #00000C",
"o  c #000014",
"O  c #00001B",
"+  c #002B00",
"@  c #000023",
"#  c #050E27",
"$  c #0B1929",
"%  c #111D2D",
"&  c #10152B",
"*  c #2A0034",
"=  c #10202D",
"-  c #283739",
";  c #007B00",
":  c #2F483A",
">  c #31453C",
",  c #00772C",
"<  c #2F3A44",
"1  c #423C53",
"2  c #395643",
"3  c #3D5A46",
"4  c #3A5647",
"5  c #405E49",
"6  c #44654D",
"7  c #4B6B4F",
"8  c #427B43",
"9  c #4C6E50",
"0  c #4E7353",
"q  c #4E7E56",
"w  c #547A56",
"e  c #577F59",
"r  c #72717B",
"t  c #6B6A73",
"y  c #12821A",
"u  c #00842A",
"i  c #1B8220",
"p  c #2A832A",
"a  c #2F833F",
"s  c #288931",
"d  c #3C853D",
"f  c #338645",
"g  c #3E8742",
"h  c #3D8943",
"j  c #3D8C4B",
"k  c #369547",
"l  c #259749",
"z  c #34A362",
"x  c #448B45",
"c  c #468D49",
"v  c #4A8D49",
"b  c #498D47",
"n  c #47914F",
"m  c #4C914D",
"M  c #59964B",
"N  c #5A835B",
"B  c #5C8C5F",
"V  c #439555",
"C  c #4A9453",
"Z  c #4C9857",
"A  c #4D9C5C",
"S  c #599B57",
"D  c #519D5C",
"F  c #559755",
"G  c #669B4D",
"H  c #43A45A",
"J  c #72A14D",
"K  c #61A25E",
"L  c #76A552",
"P  c #78A550",
"I  c #77B255",
"U  c #4C9F60",
"Y  c #5C9162",
"T  c #628F61",
"R  c #649464",
"E  c #6C9D6A",
"W  c #669766",
"Q  c #48A76B",
"!  c #4EA86C",
"~  c #4DA564",
"^  c #56A566",
"/  c #5AA666",
"(  c #54A769",
")  c #56AA6B",
"_  c #5BAC6D",
"`  c #55A965",
"'  c #5EAE70",
"]  c #54AB73",
"[  c #62AD6D",
"{  c #6EAD6A",
"}  c #6CA467",
"|  c #75A96F",
" . c #6AB36F",
".. c #74B26D",
"X. c #65AF73",
"o. c #76A474",
"O. c #77AA71",
"+. c #7AAD74",
"@. c #64B372",
"#. c #6CB574",
"$. c #6FB976",
"%. c #67B976",
"&. c #7AB274",
"*. c #71B977",
"=. c #7CBA74",
"-. c #7FB578",
";. c #76BC79",
":. c #7ABE7B",
">. c #74B570",
",. c #7EC27D",
"<. c #84AC59",
"1. c #8FB356",
"2. c #94B759",
"3. c #9CBB59",
"4. c #97B756",
"5. c #85A94C",
"6. c #A2BF5C",
"7. c #85B664",
"8. c #8ABB69",
"9. c #91B867",
"0. c #82BB7B",
"q. c #84BB75",
"w. c #A2BE63",
"e. c #A7C25B",
"r. c #ABC45C",
"t. c #83C27E",
"y. c #8CC57C",
"u. c #82C577",
"i. c #91C67D",
"p. c #98C476",
"a. c #ABC661",
"s. c #A9C666",
"d. c #BCD16F",
"f. c #A4CA7A",
"g. c #BCD275",
"h. c #BDD77E",
"j. c #B3D27C",
"k. c #B5CB68",
"l. c #C2D676",
"z. c #CBDE76",
"x. c #C6D97A",
"c. c #C9DC7C",
"v. c #76B786",
"b. c #8A8A92",
"n. c #8D8D94",
"m. c #85BB8F",
"M. c #8CAF90",
"N. c #9D9DA3",
"B. c #A2A2A7",
"V. c #85C580",
"C. c #8AC781",
"Z. c #87C982",
"A. c #8CCA84",
"S. c #91CD86",
"D. c #92D087",
"F. c #93D188",
"G. c #B3D682",
"H. c #BCD981",
"J. c #AAC5AB",
"K. c #AFD0B5",
"L. c #B7D5BC",
"P. c #ACD4AA",
"I. c #C3DB81",
"U. c #CCDE81",
"Y. c #CADF92",
"T. c #CFE183",
"R. c #D1E282",
"E. c #D3E293",
"W. c #C1E4BC",
"Q. c #C4DDC9",
"!. c #C6CCC8",
"~. c #C7E2CC",
"^. c #CEE1D0",
"/. c #D7E7DA",
"(. c #DFEDE5",
"). c #E8ECE8",
"_. c #EAF3E9",
"`. c #F5F9EE",
"'. c #EEEEF0",
"]. c #FEFEFE",
"[. c #F6F9F4",
/* pixels */
"                                                                                                                                ",
"                                                                                                                                ",
"                                                                                                                                ",
"                                                                                                                                ",
"                                                                                                                                ",
"                                                                                                                                ",
"                                                                                                                                ",
"                                                                                                                                ",
"                                                                                                                                ",
"                                                                                                                                ",
"                                                                                                                                ",
"                                                                                                                                ",
"                                                                                                                                ",
"                                                                  . X o O O @ @ O X . .                                         ",
"                                                            * * - 5 q B Y R Y Y Y B R 9 @ .                                     ",
"                                                        . . + , l H %.%.%.@.%.%.@.@.$.t.&.3 .                                   ",
"                                                      . < M.K.L.~.L.D S Z C C v c v ( @.V.A.N X $                               ",
"                                                    . r '.].].].].].O.p x x x x n ^ _ ) ) ,.D.N X                               ",
"                                                  . b.].].].].].].].M.i v c x C ) _ _ _ _ _ t.A.2 .                             ",
"                                                . N.].].].].].].].].J., c x A _ _ _ _ _ ) ( @.A.e .                             ",
"                                              . B.].].].].].].].].].J.; S / ) ' _ _ _ ! [ #._ Z.E .                             ",
"                                            . B.].].].].].].].].].].M.k t.C.#._ _ [ Q >.H.q.! C.O..                             ",
"                                          . B.].].].].].].].].].].L.k  .A.A.A.:._ Q q.U.x.) ) C.O.o                             ",
"                                        . B.].].].].].].].].].].^.H ) ,.A.C.C.A.:.p.T.R.q.! _ Z.+.O                             ",
"                                      . n.].].].].].].].].].]./.~ ) X.y.C.C.C.V.G.R.R.h.t.t.;.Z.+.@                             ",
"                                    . b.].].].].].].].].].]./.) ) _  .A.A.C.C.G.c.T.R.p.t.S.,.A.+.@                             ",
"                                  . t [.].].].].].].].].].).[ ^ @.) :.A.V.A.H.R.U.R.g...A.A.=.A.| o                             ",
"                                . 1 '.].].].].].].].].].).] z _ ! ) t.A.S.H.R.U.U.R.9.;.S.C.;.A.| .                             ",
"                                . !.].].].].].].].].].`.i.8.S.f.j.j.I.I.c.R.U.U.T.h.} C.A.C.*.A.R .                             ",
"                              O 8 W.].].].].].].].].[.E.z.R.R.R.T.R.U.T.U.U.U.U.T.<.[ A.C.V.$.A.w .                             ",
"                            X - 0.A.`.].].].].].].`.E.z.T.U.U.U.c.U.U.U.U.U.U.R.g.c t.A.C.t.$.C.3 .                             ",
"                            . N F.u.P.[.[.[.(.^.Q.Y.z.R.R.T.T.T.T.T.T.T.T.R.R.R.<.C A.C.S.:.*.&.@                               ",
"                            . } S.A.@.v.m.} m u I x.T.c.x.x.x.z.l.l.l.g.d.d.d.a.x ..A.C.t.@.,.W .                               ",
"                            O O.S.V.@.A s p d c s.k.a.a.r.r.r.r.e.e.e.r.e.e.r.J h #.*.@._ [ 0.> X                               ",
"                            % -.S.V./ F m C j P r.e.e.e.r.r.r.r.r.r.r.r.e.e.4.x n _ ) _ ( ,.W .                                 ",
"                            : 0.S.=.x x x x x 6.r.e.r.r.e.2.1.<.7.7.L G M M b x b n m V $.0.& O                                 ",
"                          . 2 C.S.{ g c n f P r.e.e.r.4.x a a V ! ! ~ j g j x b x c d F C.9 .                                   ",
"                          . 2 C.S.[ g c x x 3.r.e.r.4.m n W ..#._ [ ' ^ v x c b x x Z V.E X                                     ",
"                          . 5 C.A.^ x v f P r.r.r.s.q.=.y.C.S.%.) _ _ _ ^ x x c x V t.0.# O                                     ",
"                          . 6 A.V.( b x x 3.r.e.r.y.A.i.A.A.t.' _ _ _ _ _ ( b x A :.C.2 X                                       ",
"                          . 6 A.,.( v f J r.r.r.i.C.C.C.C.A.:.) _ _ _ _ _ ' ^ A $.A.e .                                         ",
"                          . 6 S.;.^ c c 2.r.a.i.C.A.A.C.C.C.{ H / ' _ _ _ _ ) %.S.W .                                           ",
"                          . 3 C.$.( j G e.r.y.Z.C.C.C.C.D.=.x b ^ _ _ _ ' ) ' S.O.o @                                           ",
"                          . 2 A.#.( j 5.a.y.Z.C.A.S.A.y.t.S d D ' _ _ _ ) ' A.+.@ O                                             ",
"                            = 0.V._ c 8.S.A.S.A.t.=.{ K m x n _ _ _ _ ) _ A.&.$ o                                               ",
"                            X 9 S.:.#.V.0...} S m x d d g g D _ _ ) ) ' A.&.% O                                                 ",
"                              . N S.V._ ^ ~ H A A A A A D C _ _ _ @.,.A.} @ o                                                   ",
"                              $ X T S.V.*.*.*.*.;.;.:.,.,.t.t.C.D.A.-.w o O                                                     ",
"                                # o N t.S.D.D.D.D.F.F.F.D.A.C.0.E 0 @ .                                                         ",
"                                    X - 0 R E E E E E E R 0 2 % . .                                                             ",
"                                      . . . X o O O o X . . .                                                                   ",
"                                                                                                                                ",
"                                                                                                                                ",
"                                                                                                                                ",
"                                                                                                                                ",
"                                                                                                                                ",
"                                                                                                                                ",
"                                                                                                                                ",
"                                                                                                                                ",
"                                                                                                                                ",
"                                                                                                                                ",
"                                                                                                                                ",
"                                                                                                                                ",
"                                                                                                                                "
};
