/* XPM */
static char *cc83ca26536d4218c9eb04dadad6d805k6ujcqF8WhdNKrSS[] = {
/* columns rows colors chars-per-pixel */
"64 128 16 1 ",
"  c None",
". c black",
"X c #412E2A",
"o c #653F2F",
"O c #182672",
"+ c #784040",
"@ c #A2690B",
"# c #941448",
"$ c #C4185B",
"% c #DAA402",
"& c #D89870",
"* c #3957A7",
"= c #7879A5",
"- c #F8D0B8",
"; c #A8A8D8",
": c #E8E8F8",
/* pixels */
"                                                                ",
"                                                                ",
"                                                                ",
"                                                                ",
"                                                                ",
"                                                                ",
"                                                                ",
"                                                                ",
"                                                                ",
"                                                                ",
"                                                                ",
"                                                                ",
"                                                                ",
"                                                                ",
"                                                                ",
"                                                                ",
"                                                                ",
"                                                                ",
"                                                                ",
"                                                                ",
"                                                                ",
"                                                                ",
"                                                                ",
"                                                                ",
"                                                                ",
"                                                                ",
"                                                                ",
"                                                                ",
"                                                                ",
"                                                                ",
"                                                                ",
"                                                                ",
"                                                                ",
"                                                                ",
"                                                                ",
"                                                                ",
"                                                                ",
"                                                                ",
"                                                                ",
"                                                                ",
"                                                                ",
"                                                                ",
"                                                                ",
"                                                                ",
"                                                                ",
"                                                                ",
"                                                                ",
"                                                                ",
"                                                                ",
"                                                                ",
"                                                                ",
"                                                                ",
"                                                                ",
"                                                                ",
"                                                                ",
"                                                                ",
"                                                                ",
"                                                                ",
"                                                                ",
"                                                                ",
"                                                                ",
"                                                                ",
"                                                                ",
"                                                                ",
"                                                                ",
"                                                                ",
"                                                                ",
"                                                                ",
"                                                                ",
"                                                                ",
"                                                                ",
"                                                                ",
"                                                                ",
"                                                                ",
"                                                                ",
"                                                                ",
"                                                                ",
"                                                                ",
"                        OOOO======                              ",
"                        OOOO======                              ",
"                    OOOO**==::::::====                          ",
"                    OOOO**==::::::====                          ",
"                  OO**==::::::::::::::====                      ",
"                  OO**==::::::::::::::====                      ",
"                OO**;;::::::::::::::::::::..                    ",
"                OO**;;::::::::::::::::::::..                    ",
"                ..==::::::::::::::::::::::::..                  ",
"                ..==::::::::::::::::::::::::..                  ",
"              ..;;::::::::::::::::::::::;;;;..                  ",
"              ..;;::::::::::::::::::::::;;;;..                  ",
"                ..;;;;;;;;::::::::::::;;::::..                  ",
"                ..;;;;;;;;::::::::::::;;::::..                  ",
"                OO..====;;;;::::::;;::::;;==                    ",
"                OO..====;;;;::::::;;::::;;==                    ",
"              ..**OO..;;==;;;;;;;;::;;;;==++                    ",
"              ..**OO..;;==;;;;;;;;::;;;;==++                    ",
"          OOOO******OO..;;;;;;;;====OO&&&&++                    ",
"          OOOO******OO..;;;;;;;;====OO&&&&++                    ",
"          ..******OO..OO..;;==OO**OO&&&&--++                    ",
"          ..******OO..OO..;;==OO**OO&&&&--++                    ",
"            ..OOOO....OO====&&OO**&&;;oo--++                    ",
"            ..OOOO....OO====&&OO**&&;;oo--++                    ",
"              ....  ..;;;;..&&OO**&&::..--++                    ",
"              ....  ..;;;;..&&OO**&&::..--++                    ",
"                    ..==OO**OOOO**&&------&&                    ",
"                    ..==OO**OOOO**&&------&&                    ",
"                      ..OOOO..OO**&&----++                      ",
"                      ..OOOO..OO**&&----++                      ",
"                      ##..$$OO$$$$++++++                        ",
"                      ##..$$OO$$$$++++++                        ",
"                  ######$$##**;;##$$XX                          ",
"                  ######$$##**;;##$$XX                          ",
"                    ####  OO..**OO##::XX                        ",
"                    ####  OO..**OO##::XX                        ",
"                        ..@@..----++**..                        ",
"                        ..@@..----++**..                        ",
"                        ..**..&&&&++%%..                        ",
"                        ..**..&&&&++%%..                        ",
"                        ..OO::....**@@                          ",
"                        ..OO::....**@@                          ",
"                          ..@@@@%%..                            ",
"                          ..@@@@%%..                            ",
"                            ......                              ",
"                            ......                              ",
"                                                                ",
"                                                                ",
"                                                                ",
"                                                                "
};
