/* XPM */
static char *_7c32f908e0d4a49d80a9723c941f30etKxveVmh2BN7rKCM[] = {
/* columns rows colors chars-per-pixel */
"64 128 15 1 ",
"  c None",
". c black",
"X c #412E2A",
"o c #182672",
"O c #784040",
"+ c #A2690B",
"@ c #941448",
"# c #C4185B",
"$ c #DAA402",
"% c #D89870",
"& c #3957A7",
"* c #7879A5",
"= c #F8D0B8",
"- c #A8A8D8",
"; c #E8E8F8",
/* pixels */
"                                                                ",
"                                                                ",
"                                                                ",
"                                                                ",
"                                                                ",
"                                                                ",
"                                                                ",
"                                                                ",
"                                                                ",
"                                                                ",
"                                                                ",
"                                                                ",
"                                                                ",
"                                                                ",
"                                                                ",
"                                                                ",
"                                                                ",
"                                                                ",
"                                                                ",
"                                                                ",
"                                                                ",
"                                                                ",
"                                                                ",
"                                                                ",
"                                                                ",
"                                                                ",
"                                                                ",
"                                                                ",
"                                                                ",
"                                                                ",
"                                                                ",
"                                                                ",
"                                                                ",
"                                                                ",
"                                                                ",
"                                                                ",
"                                                                ",
"                                                                ",
"                                                                ",
"                                                                ",
"                                                                ",
"                                                                ",
"                                                                ",
"                                                                ",
"                                                                ",
"                                                                ",
"                                                                ",
"                                                                ",
"                                                                ",
"                                                                ",
"                                                                ",
"                                                                ",
"                                                                ",
"                                                                ",
"                                                                ",
"                                                                ",
"                                                                ",
"                                                                ",
"                                                                ",
"                                                                ",
"                                                                ",
"                                                                ",
"                                                                ",
"                                                                ",
"                                                                ",
"                                                                ",
"                                                                ",
"                                                                ",
"                                                                ",
"                                                                ",
"                                                                ",
"                                                                ",
"                                                                ",
"                                                                ",
"                          **********                            ",
"                          **********                            ",
"                      ****;;;;;;;;;;****                        ",
"                      ****;;;;;;;;;;****                        ",
"                    ..;;;;;;;;;;;;;;;;;;XX                      ",
"                    ..;;;;;;;;;;;;;;;;;;XX                      ",
"                  ..;;;;;;;;;;;;;;;;;;;;;;..                    ",
"                  ..;;;;;;;;;;;;;;;;;;;;;;..                    ",
"                ..;;;;;;;;;;;;;;;;;;;;;;;;;;XX                  ",
"                ..;;;;;;;;;;;;;;;;;;;;;;;;;;XX                  ",
"              ..;;;;;;;;;;;;;;;;;;;;;;;;;;;;;;..                ",
"              ..;;;;;;;;;;;;;;;;;;;;;;;;;;;;;;..                ",
"              ..;;;;;;;;;;;;;;;;;;;;;;;;;;;;;;..                ",
"              ..;;;;;;;;;;;;;;;;;;;;;;;;;;;;;;..                ",
"              ..**--;;;;;;;;;;;;;;;;;;;;;;--**..                ",
"              ..**--;;;;;;;;;;;;;;;;;;;;;;--**..                ",
"              ..--**oooo--;;;;;;;;;;--oooo**--..                ",
"              ..--**oooo--;;;;;;;;;;--oooo**--..                ",
"              ..--..&&oooooooooo&&oooo&&oo----..                ",
"              ..--..&&oooooooooo&&oooo&&oo----..                ",
"                ..&&&&&&&&&&oo&&oo&&&&oo..--..                  ",
"                ..&&&&&&&&&&oo&&oo&&&&oo..--..                  ",
"              ..oo&&&&&&&&oooooooooooooo----..                  ",
"              ..oo&&&&&&&&oooooooooooooo----..                  ",
"              ..&&oo&&&&oo..;;**;;oooo--**oo..                  ",
"              ..&&oo&&&&oo..;;**;;oooo--**oo..                  ",
"              ..oooo&&oooo..----------**oo..                    ",
"              ..oooo&&oooo..----------**oo..                    ",
"                ..&&oo&&..oo**--**oooo@@..                      ",
"                ..&&oo&&..oo**--**oooo@@..                      ",
"                  ....oo..@@######@@@@@@..                      ",
"                  ....oo..@@######@@@@@@..                      ",
"                OO--oo..@@@@@@@@@@@@@@..                        ",
"                OO--oo..@@@@@@@@@@@@@@..                        ",
"              OO==----..ooooooooooooooooXX                      ",
"              OO==----..ooooooooooooooooXX                      ",
"              OO====..++oooo........oo;;--..                    ",
"              OO====..++oooo........oo;;--..                    ",
"                OOOOXX++$$++$$$$$$++----====..                  ",
"                OOOOXX++$$++$$$$$$++----====..                  ",
"                    ..oooo..++$$++..oo..%%%%..                  ",
"                    ..oooo..++$$++..oo..%%%%..                  ",
"                    ..oooooo......--........                    ",
"                    ..oooooo......--........                    ",
"                    ..--;;;;--......                            ",
"                    ..--;;;;--......                            ",
"                      ..--$$..                                  ",
"                      ..--$$..                                  ",
"                      ..++++..                                  ",
"                      ..++++..                                  ",
"                        ....                                    ",
"                        ....                                    ",
"                                                                ",
"                                                                "
};
