/* XPM */
static char *_86d07ec7d194c79c22bffd912a9a2cf5WmQe6suvidYsV5E[] = {
/* columns rows colors chars-per-pixel */
"64 64 183 2 ",
"   c #4C2C1A",
".  c #562A1B",
"X  c #46341E",
"o  c #483B22",
"O  c #523720",
"+  c #5A3520",
"@  c #633D25",
"#  c #693F27",
"$  c #4D5A33",
"%  c #6C4128",
"&  c #74462C",
"*  c #79492E",
"=  c #7F4C30",
"-  c #4B6437",
";  c #4E653A",
":  c #4C6C3C",
">  c #526939",
",  c #59753D",
"<  c #527340",
"1  c #557944",
"2  c #597B43",
"3  c #992A26",
"4  c #99332A",
"5  c #A62A27",
"6  c #A32D29",
"7  c #AC2928",
"8  c #B32C2C",
"9  c #A5332C",
"0  c #B5332E",
"q  c #B8352F",
"w  c #A03D30",
"e  c #B93730",
"r  c #BA3D32",
"t  c #C33737",
"y  c #C23837",
"u  c #C53A39",
"i  c #CC3D3C",
"p  c #824E32",
"a  c #8F4F34",
"s  c #865134",
"d  c #8C5536",
"f  c #8E5638",
"g  c #9F523B",
"h  c #945B3A",
"j  c #995E3D",
"k  c #AA4234",
"l  c #AB4737",
"z  c #A94937",
"x  c #AE4A38",
"c  c #B34737",
"v  c #BC4234",
"b  c #B14936",
"n  c #A55C3F",
"m  c #B6543E",
"M  c #9C603E",
"N  c #AE623F",
"B  c #CC423C",
"V  c #D1443F",
"C  c #D15B3F",
"Z  c #A85F42",
"A  c #9F6240",
"S  c #A56340",
"D  c #BF6C4F",
"F  c #D24640",
"G  c #D44D42",
"H  c #CC5A47",
"J  c #D55345",
"K  c #D35D41",
"L  c #D56344",
"P  c #DB6446",
"I  c #D96A46",
"U  c #D2624F",
"Y  c #D66B4A",
"T  c #DE6B49",
"R  c #D3744D",
"E  c #DF714B",
"W  c #DC7D52",
"Q  c #E1744B",
"!  c #E17A4F",
"~  c #E07751",
"^  c #E27B51",
"/  c #5C8247",
"(  c #65854C",
")  c #668F52",
"_  c #679251",
"`  c #6A9754",
"'  c #6B9854",
"]  c #6F9C59",
"[  c #739A53",
"{  c #709C59",
"}  c #74A35A",
"|  c #7CA95C",
" . c #79AA60",
".. c #7DAD6A",
"X. c #7EB365",
"o. c #81AA59",
"O. c #9FA561",
"+. c #85B765",
"@. c #9ABD6C",
"#. c #A5AC66",
"$. c #A8AB69",
"%. c #ABBB6C",
"&. c #BBB966",
"*. c #DC8154",
"=. c #DA8556",
"-. c #DA8957",
";. c #DB8958",
":. c #E28555",
">. c #E38957",
",. c #E48559",
"<. c #E38C59",
"1. c #E4925F",
"2. c #D88E64",
"3. c #E49460",
"4. c #E59964",
"5. c #E3956B",
"6. c #E79E6C",
"7. c #E69F70",
"8. c #E8A26F",
"9. c #E6A273",
"0. c #E8A771",
"q. c #E9AA75",
"w. c #E9AD7A",
"e. c #EAB27B",
"r. c #9BC36D",
"t. c #91CD74",
"y. c #93D174",
"u. c #9AD477",
"i. c #97D579",
"p. c #99D978",
"a. c #99D979",
"s. c #A8C26D",
"d. c #B7CA6C",
"f. c #AFD16E",
"g. c #B6D46D",
"h. c #B7D86E",
"j. c #A3C471",
"k. c #A3CB72",
"l. c #AACB74",
"z. c #AACF78",
"x. c #B4C171",
"c. c #A2D175",
"v. c #A8DB74",
"b. c #A1DE7E",
"n. c #BAD871",
"m. c #97E078",
"M. c #99E179",
"N. c #A2E17F",
"B. c #AEE779",
"V. c #A3E87F",
"C. c #ACE87C",
"Z. c #B6E876",
"A. c #B3EB78",
"S. c #B8EF78",
"D. c #B7F079",
"F. c #B9F179",
"G. c #C9D070",
"H. c #C0F87F",
"J. c #EBB681",
"K. c #ECB987",
"L. c #EDBB92",
"P. c #9FDF80",
"I. c #A0DF80",
"U. c #9FE580",
"Y. c #9FE880",
"T. c #A1E180",
"R. c #A1E280",
"E. c #A1E880",
"W. c #A1E882",
"Q. c #A8E880",
"!. c #A6E68D",
"~. c #A5E88C",
"^. c #A7E88E",
"/. c #A8E88F",
"(. c #BEF680",
"). c #A7E890",
"_. c #A8E890",
"`. c #EEC297",
"'. c #EEC398",
"]. c #EFC69D",
"[. c #EFC79F",
"{. c #EFC8A0",
"}. c #F0CBA5",
/* pixels */
"_.^.Q.a.I.I.I.I.R.I.I.R.I.R.I.R.R.P.I.I.a.R.I.R.I.R.W.I.a.a.a.a.a.a.a.a.a.a.a.a.^.E.).)._./._._._._._._._._._._._._._._._.^.Y.^.",
"/.Q.M.M.I.I.R.I.I.I.R.R.I.I.I.I.I.R.I.R.I.R.I.I.I.I.I.P.a.b.R.a.i.a.a.a.i.a.a.b.V.M.^.^.E.E._.).^.E.^._._._._._._._._.)._.E.M.Y.",
"Y.M.M.M.W.I.R.M.R.R.I.R.R.I.R.I.I.P.P.R.R.R.I.R.I.I.I.I.R.z.l.a.a.a.k.s.u.a.a.W.M.M.V.V.M.Y.).).R.M.E.).^.E./._.^.E.^.).^.Y.M.m.",
"M.M.M.M.a.I.R.M.a.I.a.a.I.I.I.R.R.P.I.I.R.I.I.R.U.I.I.z.I.W ^ %.j.k.;.^ %.u.a.M.M.M.M.M.m.M.Y.E.M.m.E.^.E.M.E./.E.M.E.^.E.M.m.M.",
"a.a.m.a.a.p.m.p.a.a.a.a.P.a.P.P.R.I.R.R.R.I.z.z.I.I.z.;.%.:.q.,.Q ^ q.e.^ k.k.a.m.c.k.M.m.M.m.m.m.M.M.M.M.M.M.M.M.m.V.Y.Y.M.m.M.",
"a.a.a.p.p.p.i.p.a.a.a.a.P.a.a.I.I.a.I.I.I.z.;.^ %.l.,.q.,.^ q.e.,.q.J.e.,.%.-.x.k.;.Q k.M.m.M.M.M.m.M.M.M.M.M.m.M.M.M.M.M.m.m.m.",
"p.p.p.i.p.p.i.p.a.a.a.i.a.a.a.a.a.a.R.R.z.;.q.e.^ ^ q.e.J.J.e.e.J.J.}.K.e.,.0.! ^ e.,.x.a.M.E.R.M.m.m.m.M.m.m.M.m.M.m.M.a.a.a.m.",
"p.p.p.p.p.p.p.i.a.a.a.i.a.a.a.a.i.a.a.a.*.q.J.J.,.w.e.J.'.}.K.K.`.].}.}.J.e.J.>.q.'.e.^ v.B.E.A.V.m.m.M.m.M.M.m.M.m.M.m.m.a.a.M.",
"p.p.p.p.i.p.p.i.i.a.p.i.p.p.i.p.p.p.p.z.;.9.'.}.K.J.e.].K.}.}.}.K.J.}.}.J.J.{.K.e.e.q.>.d.S.V.F.C.M.Q.F.M.M.M.M.m.m.p.p.m.p.p.p.",
"p.i.p.p.p.p.p.p.a.a.p.p.p.p.p.p.p.i.r.-.q.,.q.'.}.}.J.].}.].].}.}.}.}.].J.].}.].J.J.,.q.,.G.Z.S.F.E.F.F.V.F.M.M.V.M.p.p.m.p.p.p.",
"y.p.p.i.p.p.p.p.a.a.a.u.p.p.i.p.p.p.R 7.w.e.J.e.].].J.e.`.e.e.].{.].{.e.e.].{.e.e.].J.J.e.W n.S.F.F.H.F.F.H.M.V.D.a.a.p.p.i.p.p.",
"p.p.p.p.p.i.p.i.i.i.a.i.p.y.p.p.a.a.D P 6.0.`.K.J.e.J.e.e.J.e.e.e.e.J.e.e.].J.J.e.'.w.'.q.1.G.S.F.F.F.F.F.F.V.F.F.a.a.p.i.p.p.i.",
"M.p.p.p.a.a.p.p.a.b.a.a.p.p.p.p.a.i.r.H P ^ q.`.}.K.].K.e.{.J.e.J.e.].e.e.J.e.].K.J.,.6.J &.H.Z.F.F.F.F.S.F.F.F.S.M.p.u.p.N.p.p.",
"B.N.p.p.b.a.p.p.N.B.a.i.p.M.p.p.a.r.U W G 9.q.e.].}.K.].K.{.J.J.].K.}.K.J.].K.e.{.].e.U ~ J &.Z.F.F.F.F.D.F.S.F.S.V.p.p.M.C.p.M.",
"A.B.p.N.B.b.a.N.B.A.b.a.b.B.M.a.a.U 5.w.,.q.^ w.`.].}.K.`.}.K.].e.{.}.}.}.J.].e.{.K.q.e.q.E H n.F.F.D.D.S.F.S.S.S.S.p.N.A.B.N.C.",
"B.B.N.B.Z.B.b.B.B.B.B.N.B.A.I.U.j.@.J 8.q.8.,.L.e.0.`.].J.`.}.K.e.].}.}.}.K.e.q.'.{.,.9.,.G &.I.B.F.F.C.F.S.F.S.S.S.S.B.B.C.A.Z.",
"B.Z.B.B.B.B.B.Z.B.B.Z.Z.A.Q.f.@.c i T 6.Q G 9.0.0.,.w.J.e.q.L.{.q.w.`.].}.].e.^ 6.e.e.^ 5.! V $.M.F.A.N.B.S.A.S.S.S.S.B.C.Q.B.B.",
"B.C.A.Z.A.B.B.A.B.A.V.B.C.l.b q T G P T G T 6.^ T 6.].].J.,.8.w.^ q.q.w.'.J.e.,.T 6.0.! G T V q #.s.a.N.B.C.N.B.S.A.B.Q.Q.Q.A.B.",
"V.V.Q.B.B.Q.C.C.A.Q.Q.Q.Q.S L E Q Q G i T Q Q Q V T L.q.w.e.^ 6.,.q.^ q.e.q.w.e.J T T T Q V T Q r q #.N.Q.R.I.Q.B.C.B.Q.Q.Q.C.B.",
"V.C.Q.Q.Q.Q.Q.Q.Q.Q.Q.Q.Q.j.b T >.! Q G P T T T G T 6.! q.q.Q Q q.q.,.q.e.^ 8.w.^ V V V T V Q >.Q I b j.I.I.R.R.Q.W.Q.Q.Q.Q.Q.B.",
"Q.Q.Q.Q.Q.Q.Q.Q.Q.Q.Q.Q.l.b =.<.! <.! Q G P G i P Q Q T 8.Q V T 6.Q 8.w.q.Q Q 6.^ G P Q C T >.! Q v %.j.b.a.I.I.Q.I.R.Q.Q.Q.Q.Q.",
"Q.Q.Q.Q.Q.Q.Q.Q.Q.Q.Q.Q.k I <.1.1.<.>.! Q G Q G i T T V P V T Q T T Q 6.Q V P Q Q T G T Q :.>.1.! <.! 0 j.R.I.I.P.a.P.R.Q.Q.Q.Q.",
"Q.Q.Q.Q.Q.Q.Q.Q.Q.Q.C.V.N R <.0.4.<.! >.>.! ,.Q V P V Q V Q V T G i T Q V V V T T V T ,.:.Q 1.q.1.1.*.b r.I.I.a.a.a.a.I.Q.Q.Q.Q.",
"Q.Q.Q.Q.Q.S.Q.Q.F.Q.Q.F.h.m *.1.w.4.1.<.^ <.! Q J V Q >.Q <.Q C T G P T V T Q J V T Q Q <.1.q.1.1.0.c #.a.I.a.a.a.a.a.I.I.S.C.Q.",
"V.F.Q.Q.F.F.F.C.(.F.Q.Z.m 6.1.e.e.q.4.1.0.4.1.! Q Q <.Q ! <.! ! ,.Q G V T ! Q ! Q Q Q >.1.0.e.e.e.4.1.v #.u.p.a.a.a.a.a.N.F.F.Q.",
"F.H.F.C.F.F.F.F.F.F.H.S 2.<.0.q.e.1.0.1.1.q.1.1.! 1.<.! <.1.1.<.<.^ Q Q Q >.1.1.:.<.1.1.0.1.0.q.q.q.<.W x r.a.a.a.S.R.a.S.H.F.Q.",
"F.F.F.F.S.F.F.S.F.F.S.S.k W <.<.0.1.>.1.w.e.e.1.1.e.4.1.<.e.e.1.3.1.! ! >.3.0.e.<.1.q.e.1.1.<.0.1.<.Q 0 @.p.b.A.I.S.A.R.(.(.F.F.",
"F.F.F.S.F.F.S.S.S.S.S.g.b C >.! :.>.! 0.q.e.w.1.q.e.e.e.1.e.q.1.0.4.3.<.3.0.1.q.8.0.q.0.e.1.:.:.<.E P 0 O.u.S.S.Q.S.S.F.(.F.F.F.",
"F.F.S.S.S.S.S.S.F.F.g.v t q *.<.Q Q >.0.1.0.4.<.0.q.q.e.e.q.<.<.1.q.q.4.0.4.1.0.e.1.<.<.0.<.>.Q 1.! v u 8 $.Z.S.S.S.D.F.H.F.S.F.",
"F.F.F.F.F.S.D.D.F.d.k i 8 L >.>.I Q <.1.>.>.0.1.Q :.1.0.q.1.>.Q 0.e.4.q.4.e.q.<.0.1.:.:.>.! :.I 8.<.<.0 i 0 &.Z.S.S.S.F.F.F.N.S.",
"A.S.S.S.D.A.A.S.F.k u i e I W L v >.>.0.:.Q >.>.! Q 0.1.<.>.I Q >.0.1.q.e.q.1.Q >.0.1.Q I :.Q v C L -.v u i 7 g.D.C.F.F.F.V.Q.F.",
"B.A.S.S.B.M.B.A.S.N u 8 R :.v 7 W 0.! >.<.Q E >.>.I :.>.<.! 0 I >.<.>.0.e.1.Q ! >.>.<.I r *.! Q 0 0 *.I q u x h.Q.E.V.D.Q.Y.V.D.",
"m.B.Z.Z.M.m.M.B.M.a.w i 7 C P e *.<.P :.>.W P >.Q v C :.>.Q r Y <.<.Q >.0.<.I >.<.Q <.0 C P :.Q r C L 8 u 8 k.V.V.V.E.Q.E.E.Y.Q.",
"m.m.B.M.m.M.m.M.M.r.k i 8 8 7 T :.P q C L :.0 Y Q :.0 C :.Q I r :.<.Q :.<.I v =.Q Q >.v 5 8 C Q Q 8 8 7 i 8 #.N.M.V.Y.E.E.Y.M.E.",
"m.m.B.m.M.m.M.M.M.k i V 8 i 8 K P 8 i 0 8 K 0 7 I P e 7 I P 8 C :.>.>.I :.0 I :.P :.P P q u 8 C L q i 8 V V 7 k.E.E.E.Y.E.E.E.E.",
"V.M.m.m.m.m.M.M.r.b V E G i i 0 8 8 i i i 8 i 0 C 0 i 0 K 8 i 8 C Q >.B C 0 C L q C q 8 i V 8 8 8 B V V Q V 0 #.R.E.Y.E.M.E.E.E.",
"V.V.m.M.M.M.M.a.N C E E ~ J i i V V B V V V V i 8 i V V q 8 i q 8 C P P q i 8 8 V q i i V Q V V V T V Q Q T B l v.Y.E.Y.W.W.W.E.",
"M.V.M.m.b.a.M.N.a.k L :.<.Q G G T Q G B P G E G V V Q V V V V i i 8 8 0 B B V V T V V V T Q Q J V T Q Q >.V 8 k.Y.Y.E.Y.W.W.Q.E.",
"U.E.M.M.p.p.b.b.@.b B E ^ Q Q Q Q :.Q G Q Q Q Q G T Q Q F V T B V i i F T C Q Q ! C T Q Q <.! Q Q >.! V P V q #.M.E.Y.Y.Y.Y.E.Y.",
"a.R.E.R.i.a.M.a.k C Q I B T >.<.! Q Q ! >.! >.Q ^ Q :.! Q Q Q J Q G i T Q >.Q >.>.Q Q >.>.1.<.>.! >.>.Q B P V 8 c.E.Y.V.E.Y.Y.Y.",
"a.a.a.a.a.a.p.p.n r P 0 F P Q >.<.Q :.>.<.<.Q Q :.<.<.<.Q Q >.^ ,.Q G ^ ! Q :.>.! Q >.<.Q >.<.Q W ,.T F 7 i i x c.Y.E.Y.E.E.E.R.",
"i.a.p.i.a.a.p.p.p.n y 8 K G T ,.>.Q Q >.<.<.Q T T :.<.<.Q <.>.1.! Q Q ! >.! Q :.>.^ >.Q >.Q :.Q G P F i 8 u x c.Y.E.V.V.M.Y.R.a.",
"a.i.p.p.p.i.p.i.p.i.k B i Y P :.Q V T >.>.Q T G G T ,.Q Q ,.<.>.<.Q Q >.1.>.Q Q :.:.Q T T V P Q T i i i i 8 k.Q.E.Y.E.C.W.W.R.a.",
"p.p.p.p.p.p.p.p.p.p.n K x L 0 I P V P >.Q T V :.Q T T ^ T T >.3.Q Q >.<.>.T Q :.T Q T V I Q V P F 8 u x u x c.A.Q.E.C.F.W.I.U.R.",
"b.a.i.I.p.a.b.a.a.a.a.n r.k i P V i i T T V V T T G T ^ F P >.,.E :.T ,.Q V P T V P V V T T B i F i 7 f.S h.Q.F.A.Q.F.F.A.I.N.B.",
"B.a.b.C.p.M.B.a.b.a.i.a.i.n u i i 7 i P G i P Q F P T G F i T ,.J P G T T V i T V V i C Q V 8 B P F c g.F.D.A.F.F.S.(.F.S.N.B.F.",
"(.N.A.S.U.A.F.N.B.b.p.i.i.a.n u i k u i K 0 t P i i T T i i K Q Q V P T V i i P Q V 8 i P i b K B b h.S.S.F.S.F.(.S.S.S.F.A.F.F.",
"S.A.S.(.A.F.F.A.S.A.M.p.a.a.i.n l r.Z u i i b u 8 i K F 8 t i T T i i P V q i i P q y i i c g.n z h.D.S.F.S.S.D.F.F.S.F.F.F.F.(.",
"F.S.F.F.D.F.F.F.F.F.C.p.p.p.a.a.a.a.a.Z l z k.Z i u i i 8 6 7 K i 8 i i U F 3 t u l l l z g.B.R.S.D.D.D.S.F.F.F.S.F.D.D.D.S.S.S.",
"S.F.F.F.D.D.F.F.F.(.A.M.p.C.Z.N.u.a.b.R.a.i.i.a.z 3 y u 7 # 4 t 6 6 e 7 u i . 4 w @.i.P.P.B.I.R.S.S.A.D.D.F.S.F.F.S.D.D.D.S.F.S.",
"S.S.F.F.F.D.F.S.F.F.A.V.b.C.C.C.R.R.C.u.a.} } ` ) o 4 6 = p & 9 = & 4 a 9 9 . ( ` ] { t.i.P.P.R.S.B.N.S.S.F.S.F.F.F.S.D.F.F.F.F.",
"S.S.F.F.S.A.S.S.F.A.S.A.V.A.B.A.B.V.v.o.{ { [ 2 $ o h f M f p j M s d j f j + $ < ) ` ] ] t.P.U.B.R.M.B.S.F.F.F.S.F.F.D.F.F.F.F.",
"S.D.B.S.S.B.A.S.A.B.S.Z.B.C.B.Z.A.v.o.} [ , , , o # s M f j = = p & h f j f &   $ < < ) ] ] t.a.R.I.I.N.S.A.S.S.S.S.S.S.S.S.A.S.",
"D.A.B.S.A.Z.A.S.B.B.A.B.Z.C.V.C.v.o.} [ , , , > O s M s h s p & & p s h s j f + $ < < < _ ` ] t.I.I.P.R.N.B.S.S.S.S.A.A.S.S.A.A.",
"A.A.B.Z.B.B.A.B.B.B.A.B.B.A.V.Q.+.{ [ 1 , , > O p M f & & = = s d = p & & s A f . $ < < : _ ] ] i.a.I.R.a.b.S.S.S.A.B.A.Z.A.B.A.",
"B.B.A.B.B.C.B.B.A.B.B.B.Q.Q.Q.Q.o.} } 1 , > O p Z S M s # & j M j Z * # = j A A f O $ $ : _ ` ] t.a.a.I.a.a.B.S.A.A.A.A.A.B.B.B.",
"Q.B.B.A.V.Q.B.A.C.Q.B.Q.Q.Q.Q.Q.| } } 2 , $ # a M M s % X & j d d j s   @ p j h f = O $ < ) ` ` y.a.a.i.a.a.C.F.A.A.C.A.C.A.A.B.",
"Q.C.A.Q.Q.Q.Q.Q.Q.Q.Q.Q.Q.Q.Q.Q.+.| } / > > $ X % & % X X % = M A s # o o + * # X X - : < ) ` ] y.i.a.I.a.M.^.C.B.B.Y.D.A.C.A.E.",
"Q.Q.Q.Q.Q.Q.W.Q.Q.Q.Q.Q.Q.Q.Q.Q.W.+.} } / 1 , < o X X : : o % = j # O $ : o o X ; < < < _ ` } y.P.i.a.W.N.~.).E.B.E.).E.C.A.E.Q.",
"!.Q.Q.Q.Q.Q.Q.Q.Q.Q.Q.Q.E.Q.E.E.W.W.X.} ] } / 2 : : : : : : o % # o - < : : < ; < < ) { ` ] y.U.).a.M.^.^.^._.).M.E.).^.^.Q._.Q.",
"^.V.C.V.Q.Q.Q.Q.Q.Q.Q.E.Y.Q.Y.R.R.U.R.X.} } } ] : : / : : : : o X - : : : < < < _ ` { .. .y.I.^.).R.)._._._._._.)._._._.^.^.^.~.",
"^.^.Q.V.W.W.Q.Q.E.Q.Q.R.R.U.M.E.I.R.Y.R.Y.X. .] } ` ` < < < < < < < < < < ) ` ` { } ..!._.R.^._.).!._._._._._._._._._._.^.^._.M.",
"/._.Q.Q.U.R.R.U.U.Y.E.U.R.R.E.R.I.I.P.P.U.U.P... .} } ] ` ` ` ` ` ` ` ` ` } { } ..a.!._._._._._._._._._._._._._._._._._._._.)._.",
"_._.Q.E.R.R.Y.R.I.R.U.I.R.R.R.R.P.P.U.P.P.P.P.U.U.m.m. .` ` ` ` ` ` ` ` ` t.i.U._._._._._._._._._._._._._._._._._._._._._._._._."
};
