/* XPM */
static char *_3c6b91e82a24b148a3d3cf463fd6f055ABxemwxloKpDTbN[] = {
/* columns rows colors chars-per-pixel */
"64 64 233 2 ",
"   c None",
".  c #000000",
"X  c #0F0000",
"o  c #1A0000",
"O  c #150000",
"+  c #240101",
"@  c #2C0000",
"#  c #2D0A0B",
"$  c #330000",
"%  c #370806",
"&  c #3C160A",
"*  c #361817",
"=  c #261B1F",
"-  c #291C21",
";  c #392524",
":  c #2E2422",
">  c #411D16",
",  c #530000",
"<  c #44231B",
"1  c #492517",
"2  c #562B1B",
"3  c #58321D",
"4  c #522A00",
"5  c #412521",
"6  c #4B2D25",
"7  c #462C28",
"8  c #532D21",
"9  c #4E312A",
"0  c #4A3125",
"q  c #52342D",
"w  c #563C2A",
"e  c #4C3C33",
"r  c #503B3B",
"t  c #693C27",
"y  c #544133",
"u  c #5C422D",
"i  c #77462C",
"p  c #794122",
"a  c #664937",
"s  c #76553B",
"d  c #71452D",
"f  c #584947",
"g  c #5B4E50",
"h  c #795941",
"j  c #66524E",
"k  c #7F695D",
"l  c #6D6465",
"z  c #736967",
"x  c #7C7573",
"c  c #863A10",
"v  c #974A00",
"b  c #B75801",
"n  c #BC6401",
"m  c #8B4824",
"M  c #9C5B2B",
"N  c #8B5837",
"B  c #975B38",
"V  c #8A4F2D",
"C  c #A35F2B",
"Z  c #A15C26",
"A  c #A05B32",
"S  c #B75E2B",
"D  c #A6622D",
"F  c #A9642F",
"G  c #BA6629",
"H  c #AA6534",
"J  c #AB6A35",
"K  c #AD6D39",
"L  c #A56537",
"P  c #B36435",
"I  c #BB6733",
"U  c #BC6A35",
"Y  c #B36E3A",
"T  c #BD6C3B",
"R  c #B5673A",
"E  c #AF703B",
"W  c #B4713C",
"Q  c #BC733D",
"!  c #BD7A3F",
"~  c #BE7133",
"^  c #B8722D",
"/  c #C56E12",
"(  c #C46C23",
")  c #C36C2D",
"_  c #C97628",
"`  c #C16D3B",
"'  c #C26F35",
"]  c #C37136",
"[  c #C3733D",
"{  c #C57A3E",
"}  c #CA7B3C",
"|  c #CD7B36",
" . c #D07E30",
".. c #8A6547",
"X. c #9A6B49",
"o. c #977252",
"O. c #A96A43",
"+. c #BC6D41",
"@. c #B76E45",
"#. c #A8744B",
"$. c #BD7344",
"%. c #BE7B42",
"&. c #B37C4E",
"*. c #BD7B4A",
"=. c #B77648",
"-. c #A67752",
";. c #B77B52",
":. c #827D7D",
">. c #C37443",
",. c #C57B43",
"<. c #CA7D44",
"1. c #C17649",
"2. c #C57B4A",
"3. c #CA7D4B",
"4. c #C87642",
"5. c #C97F53",
"6. c #D17F48",
"7. c #D98628",
"8. c #D58132",
"9. c #D88A39",
"0. c #B98252",
"q. c #BA884F",
"w. c #89827F",
"e. c #B48764",
"r. c #AB8664",
"t. c #CB8146",
"y. c #CC844A",
"u. c #CD8A4D",
"i. c #C58149",
"p. c #D08445",
"a. c #D38A46",
"s. c #D1854B",
"d. c #D28C4C",
"f. c #DA8B46",
"g. c #D4904E",
"h. c #DC964C",
"j. c #DE9A4C",
"k. c #DC9444",
"l. c #CD8451",
"z. c #CE8B52",
"x. c #C78C5A",
"c. c #C68856",
"v. c #D18652",
"b. c #D38D53",
"n. c #D38D5A",
"m. c #D88F54",
"M. c #CD9259",
"N. c #D69353",
"B. c #D99555",
"V. c #DA9957",
"C. c #D5925A",
"Z. c #DA965A",
"A. c #DC9B5B",
"S. c #D79958",
"D. c #E3984C",
"F. c #E29C55",
"G. c #E19C5C",
"H. c #DDA15E",
"J. c #E6A258",
"K. c #D59361",
"L. c #DC9C61",
"P. c #DB9A65",
"I. c #CA9B7B",
"U. c #CC956A",
"Y. c #E19F61",
"T. c #DEA362",
"R. c #D6A46A",
"E. c #D9A379",
"W. c #E1A464",
"Q. c #E2A469",
"!. c #E5AA6B",
"~. c #EAAC6C",
"^. c #ECAD71",
"/. c #E6AA78",
"(. c #EEB579",
"). c #F0B578",
"_. c #8D898C",
"`. c #928C8A",
"'. c #9B9696",
"]. c #A39C9B",
"[. c #A49592",
"{. c #AAA6A6",
"}. c #BBB7B6",
"|. c #B4B0AE",
" X c #C49E80",
".X c #D8A98A",
"XX c #D9B39A",
"oX c #C7AD96",
"OX c #EBB988",
"+X c #E6BB97",
"@X c #E9B684",
"#X c #D7B4A1",
"$X c #EDC39B",
"%X c #F3C798",
"&X c #F2C08A",
"*X c #DBC7B5",
"=X c #ECC7A5",
"-X c #F3CEA7",
";X c #F4D2AD",
":X c #E4C6B6",
">X c #F3D4B4",
",X c #F6DCBE",
"<X c #F5D8BA",
"1X c #CDC9C9",
"2X c #D5D1D3",
"3X c #DDDADA",
"4X c #D3CDCC",
"5X c None",
"6X c None",
"7X c None",
"8X c None",
"9X c None",
"0X c None",
"qX c None",
"wX c None",
"eX c None",
"rX c None",
"tX c None",
"yX c None",
"uX c None",
"iX c None",
"pX c None",
"aX c None",
"sX c None",
"dX c None",
"fX c None",
"gX c None",
"hX c None",
"jX c None",
"kX c None",
"lX c None",
"zX c None",
"xX c None",
/* pixels */
"                                                                                                                                ",
"                                                                                                                                ",
"                                                                                                                                ",
"                                                                                                                                ",
"                                                                                                                                ",
"                                                                                                                                ",
"                                                                                                                                ",
"                                                                                                                                ",
"                                                                                                                                ",
"                                                                                                                                ",
"                                                                                                                                ",
"                                                                                                                                ",
"                                                                                                                                ",
"                                                                                                                                ",
"hXhXhXfXOX/.=X7XeXiXfXhXhXhXhXhXhXhXhXhXhXhXhXhXhXhXhXhXgXgXhXhXhXhXhXhXhXhXhXhXhXhXhXhXhXhXkXhXhXhXhXhXhXkXdXeX>XOX~.J.6XhXhXhX",
"hXhXhX0X7.] 9.D.J.).%X>X7XrXpXkXhXhXhXhXhXhXhXhXhXhXhXhXhXhXhXhXhXhXhXhXhXhXhXhXhXhXhXhXhXhXhXhXhXhXkXiX8X$XQ.9. .} s.f.(.kXhXhX",
"hXhXhX$Xp.5.2.1.>.} | 7.9.D.~.&X>X0XtXrXiXsXzXhXhXhXhXhXhXhXhXhXhXhXhXhXhXhXhXhXfXfXdXiXiXeX0X0XhXxX.XV._ ( ' >.>.>.>.>.D.rXhXkX",
"hXhXdXT.U [ T T Q 1.1.5.s.v.P.A.D.D.J.J.(.&X%X-X-X>X,X0X0X0X0X0X0X7X,X7X>X;X;X%X%XOX).~.F.h.9.F.iX_.v v.R 1.1.>.>.>.[ +.| <XhXkX",
"hXhXeXD.>.1.i.d.y.3.,.Q ' ,.2.3.u.n.Z.P.Z.b.9.9.j.j.k.F.F.J.J.k.8.8.8.k.F.F.V.B.g.a.t.<.6.v.l.^.I.. r.~.d.6.} { 4.[ 4.1._ $XkXkX",
"fXhX*X9.Y.<.<.t.<.y.y.y.Z.A.P.Z.Z.C.c.<.[ 4.K.K.K.c.i.n.M.n.C.n.n.n.n.C.b.b.l.3.6.v.b.C.P.P.C.~.r.. * X.&.i.x.x.y.3.[ >.) /.dXhX",
"hXhX2X. h -.x.C.b.C.z.A.J.A.V.g.a.6.} | { } b.N.N.Z.C.b.b.n.n.N.b.z.z.z.b.C.Z.L.L.L.L.A.S.N.d.F.R.s s 0 u h o.o.#.2.[ T U j.iXhX",
"gXhXsX..4 e a ..-.$.8.u.y.p.a.p.a.d.d.d.d.d.u.d.g.b.b.B.N.N.B.N.B.S.A.A.A.A.S.N.B.d.g.g.N.B.Z.V.!.!.!.!.!.H.u.y.t.t.y.>.+.8.eXhX",
"hXaX(.Q.L.L.A.M.c.v.A.W.W.W.W.W.W.W.T.W.G.H.H.A.A.A.Z.Z.B.B.N.N.N.N.N.N.N.N.B.S.A.S.A.V.B.B.B.S.S.H.S.h.h.d.t.u.b.N.t.I I _ 8XhX",
"hXeX8.T T 4.p.i.p.s.B.B.N.N.N.B.g.g.N.g.N.N.g.B.B.S.B.S.A.A.A.T.H.Y.Y.A.A.A.A.V.S.B.A.A.A.A.A.S.h.N.g.S.H.H.S.g.b.b.{ I R / >XhX",
"gX8Xa.*.,.u.d.d.y.N.A.A.V.A.A.A.A.A.A.A.A.H.A.A.A.A.B.A.B.Z.B.B.B.N.N.N.N.B.S.V.V.B.V.B.N.N.B.A.H.H.T.H.H.T.H.z.b.b.b.,.$.n =XkX",
"hX-X_ +.>.t.t.i.t.b.B.g.N.N.N.N.B.B.B.B.B.B.A.B.A.S.A.A.A.A.A.A.A.V.V.B.V.h.N.g.B.V.A.A.A.A.A.A.A.A.H.T.T.T.H.u.y.t.t.{ $.( +XfX",
"hX$X| 1.i.b.u.d.b.A.J.H.H.H.H.H.T.L.T.G.G.L.A.A.A.A.B.B.B.B.N.N.N.B.B.Z.V.V.V.V.V.B.A.A.A.A.W.J.H.H.A.V.N.N.N.a.y.u.d.t.>.) @XfX",
"hXOX| 1.t.u.u.u.z.S.S.S.S.S.B.B.B.B.B.B.B.B.B.B.B.B.B.Z.V.Z.A.A.A.A.Z.Z.V.V.A.A.H.L.A.L.A.V.N.N.g.N.h.V.A.A.A.u.t.t.,.,.` I E.fX",
"fX/.) +.>.t.t.<.y.g.B.B.B.V.V.A.A.A.A.A.A.A.A.H.A.W.G.A.H.A.A.A.A.V.A.V.V.S.B.N.N.g.g.g.N.V.A.H.H.S.B.N.a.u.d.u.y.s.b.d.3.] P.zX",
"dXY.I +.} <.<.<.} d.d.d.g.g.N.N.N.N.N.N.N.B.N.b.N.b.g.N.N.N.N.d.g.g.g.g.N.B.B.A.L.A.W.T.T.A.B.d.a.a.d.N.H.H.J.S.d.d.y.<.[ I K.dX",
"pXY.>.,.y.y.u.u.y.N.A.V.A.A.A.A.A.A.A.A.A.A.A.A.V.V.A.A.A.A.A.H.H.T.W.W.Q.W.W.W.W.A.g.a.y.a.d.B.A.H.T.T.A.N.b.t.{ t.y.t.4.[ n.pX",
"iXF.` ,.y.b.d.b.d.B.W.A.H.A.A.A.A.G.A.L.A.T.A.T.T.T.T.L.T.T.W.W.T.T.W.T.A.V.d.d.p.d.g.B.A.W.W.T.T.T.S.A.V.H.L.b.b.B.N.b.3.>.K.pX",
"iXf.P R [ 4.{ } { t.B.V.S.H.T.T.T.L.W.W.W.T.H.T.T.R.T.T.J.H.A.A.A.N.g.a.g.g.B.V.T.R.T.W.T.!.T.T.T.!.J.!.T.W.A.u.u.u.p.t.Q U c.pX",
"uX<.M A E Q W W Y Y Y ! W Q Q Q Q %.%.%.%.%.,.i.q.8.! ! %.%.%.,.,.i.t.u.z.M.C.Z.S.M.S.M.M.M.M.M.M.z.u.i.t.t.,.[ ,.,.i.2.$.T x.dX",
"iXU c m M Z Z Z D D D K W E E E E K K K K K K K J J K K K K E E W E E E K J J D L M M Z D D L C D D D J J J F H H H F M V c #.dX",
"dXL.[ 3.p.y.i.i.{ { { { t.a.s.u.u.u.b.u.u.d.z.z.u.b.z.z.u.u.y.y.i.t.i.0.&.-.#.o...h ..X.X.0.0.q.c.z.u.c.q.Q W Y Y Y W C A v e.fX",
"fXE.] 3.z.m.n.C.B.B.N.b.b.C.G.A.A.S.B.N.N.N.N.N.g.N.g.g.N.N.B.B.A.A.A.L.T.Q.Q.!.!.^./.^.!.R.P.K.S.S.N.u.i.s.u.v.b.b.m.i.6.) .XkX",
"hXE.b T [ <.4.t.t.y.s.z.b.b.C.T.W.W.!.W.!.T.T.Q.W.T.T.T.W.W.T.W.T.T.T.T.W.W.W.T.A.A.V.g.B.B.S.A.A.S.N.b.n.b.z.b.v.v.u.4.5.n XXkX",
"gX+X) 3.3.d.u.t.t.<.,.{ { } { ,.y.u.d.B.N.B.N.N.B.B.A.A.A.Y.L.T.T.T.T.A.A.Z.B.N.B.A.A.A.T.T.J.A.d.y.t.t.t.t.t.t.<.<.4.T 1.b :XkX",
"hX:X( l.u.n.N.n.N.M.N.N.m.B.d.v.d.s.z.b.M.x.C.G.A.L.A.A.A.A.Z.B.N.B.N.N.S.A.H.Y.L.A.S.N.B.N.u.{ t.y.z.b.b.y.s.y.y.d.3.1.3.( 5XkX",
"hX5Xb T T <.p.p.p.y.i.i.2.&.#.O...N a u e : a ;.s.<.<.<.3.y.y.l.b.n.C.n.C.v.3.Q ,.t.u.b.d.} [ y.b.m.N.y.4.t.d.v.b.u.Q T I +.iXhX",
"gXuXU >.>.Q L N i 3 & . . . . . . . . . . . . O O.5.3.3.6.v.s.u.i.y.3.y.T G U ,.2.2.<.3.Q U ] v.n.M.u.{ d.n.n.y.4.[ I 1.G I.kXhX",
"gXzXU.] ,.Q i.q.;.&.#.X.N s a w 7 ; y l z # @ - > ;.3.,.*.1.$.H H $.$.*.P U l.l.3.y.3.6.` S G T 3.l.y.[ v.x.x.{ { U ,.l.( :XhXkX",
"gXgX#Xn 5.3.v.v.s.s.3.<.2.3.4.3.*.*.0. XwXyX# o = 8 t 2 1 > > % & > > 1 1 2 t i N B O.=.1.>.T I U [ 2.,.[ =.x.d.t.U I +.G rXgXkX",
"hXhX5Xn >.U U T I I ` ` [ [ >.Y B V i + `.hX3X. + ; * ; 7 6 9 9 9 6 6 7 7 ; * % @ + @ & 2 i N L R T ] Q ` B x.,.3.<.i.) I.kXkXkX",
"hXhXsX5.` 3.4.,.<.<.<.$.O.N d < @ + * % j dXhX4X. @ $ X . . . . . . . . . o @ % 1 9 q 9 5 # o # 2 d B @.T ..P.U T T 1.b 6XgXkXhX",
"hXhXhXXXn 1.` ` P B p 1 + o @ > 9 q < $ . 9XhXhX1X- l :.`.].{.{.}.|.{.{.'.:.l r + . . . @ 1 q 6 & @ + 8 2 ..Q.>.<.2.] U.dXgXhXhX",
"hXfXhX9Xb >.O.V 2 @ % > 6 q 6 $ . . . f z 3XhXhXkXsXfXhXhXhXhXhXhXhXhXhXhXhXzXxXwX1X|._.g . . . > 6 9 < O R.X.m $.3.n 5XhXkXhXhX",
"hXhXhXhXoX, 7 ; 5 q 9 % . . . g `.}.yXxXhXhXhXhXhXhXhXhXhXhXzXhXkXkXkXkXhXhXhXhXhXgXhXhXsX9X}.w.< . . . e.e.. # a v XXhXgXzXhXhX",
"hXhXhXhXzX].. . + . . * x |.9XzXhXhXhXhXhXhXhXhXhXkXkXkXhXhXhXhXkXhXhXhXhXhXhXhXkXkXkXhXhXhXhXhXxX1X`.f 4 . % 8 . l sXhXgXgXhXhX",
"hXhXhXhXhXhXwX].x ].3XsXhXhXhXhXhXhXhXhXhXhXhXhXhXhXkXhXhXhXhXhXkXkXhXhXhXhXhXhXkXhXhXhXhXhXhXhXhXhXhXfX4X'.f + [.kXhXhXhXhXhXhX",
"hXhXhXhXhXgXhXhXsXhXhXhXhXzXkXhXhXhXhXhXhXhXhXhXhXhXhXhXhXhXhXhXhXkXhXhXhXhXhXhXhXgXhXhXgXhXhXhXhXzXhXhXhXhXwX2XhXhXkXhXhXhXhXhX",
"                                                                                                                                ",
"                                                                                                                                ",
"                                                                                                                                ",
"                                                                                                                                ",
"                                                                                                                                ",
"                                                                                                                                ",
"                                                                                                                                ",
"                                                                                                                                ",
"                                                                                                                                ",
"                                                                                                                                ",
"                                                                                                                                ",
"                                                                                                                                "
};
